<svg xmlns="http://www.w3.org/2000/svg" width="120" height="76"><g fill="none" fill-rule="evenodd"><path fill="#227FBB" d="M111.999 0H8C3.582 0 0 3.59 0 8.008v59.984C0 72.415 3.591 76 8.001 76H112c4.419 0 8.001-3.59 8.001-8.008V8.008C120 3.585 116.409 0 111.999 0Z"/><path fill="#F2C500" d="M112.407 37.643c.005 17.436-13.973 31.574-31.221 31.578-17.248.005-31.232-14.126-31.236-31.562v-.016c-.005-17.436 13.973-31.575 31.22-31.58 17.248-.004 31.232 14.127 31.237 31.564v.016s0-.006 0 0Z"/><path fill="#E94B35" d="M39.086 6.072C21.941 6.182 8.06 20.284 8.06 37.642c0 17.428 13.99 31.571 31.229 31.571 8.09 0 15.465-3.117 21.014-8.226H60.3h.006a31.724 31.724 0 0 0 3.17-3.382H57.08a30.826 30.826 0 0 1-2.329-3.252h11.035a31.734 31.734 0 0 0 1.818-3.38H52.928a31.34 31.34 0 0 1-1.305-3.317H68.91a31.808 31.808 0 0 0 1.607-10.014c0-2.32-.248-4.582-.72-6.76h-19.09c.237-1.121.536-2.229.892-3.317H68.89a31.777 31.777 0 0 0-1.347-3.38H52.927a30.395 30.395 0 0 1 1.792-3.316h11.026a31.63 31.63 0 0 0-2.424-3.381h-6.148a29.147 29.147 0 0 1 3.133-3.19C54.756 9.19 47.38 6.073 39.288 6.073h-.202s.068 0 0 0Z"/><path fill="#FFF" d="m50.517 45.68.417-2.857c-.228 0-.562.099-.857.099-1.158 0-1.285-.622-1.212-1.082l.935-5.83h1.76l.424-3.16h-1.658l.337-1.966h-3.325c-.073.074-1.963 11.054-1.963 12.39 0 1.98 1.1 2.861 2.65 2.847 1.214-.01 2.159-.35 2.492-.44 0 0-.333.09 0 0zm1.054-5.447c0 4.75 3.101 5.88 5.744 5.88 2.439 0 3.512-.552 3.512-.552l.586-3.242s-1.856.826-3.531.826c-3.57 0-2.945-2.691-2.945-2.691h6.757s.436-2.178.436-3.066c0-2.215-1.09-4.913-4.741-4.913-3.343 0-5.818 3.642-5.818 7.758 0 0 0-4.116 0 0zm5.83-4.748c1.877 0 1.531 2.132 1.531 2.304h-3.691c0-.22.348-2.304 2.16-2.304 0 0-1.812 0 0 0zM78.458 45.68l.595-3.664s-1.632.827-2.751.827c-2.359 0-3.305-1.821-3.305-3.777 0-3.969 2.03-6.152 4.289-6.152 1.694 0 3.054.962 3.054.962l.543-3.56s-2.017-.825-3.745-.825c-3.839 0-7.573 3.366-7.573 9.688 0 4.193 2.016 6.962 5.984 6.962 1.122 0 2.909-.46 2.909-.46zM32.23 32.527c-2.28 0-4.028.74-4.028.74l-.482 2.897s1.442-.593 3.623-.593c1.238 0 2.144.14 2.144 1.158 0 .618-.111.846-.111.846s-.977-.083-1.43-.083c-2.875 0-5.896 1.241-5.896 4.982 0 2.947 1.982 3.623 3.21 3.623 2.346 0 3.358-1.539 3.411-1.543l-.11 1.284h2.929l1.306-9.257c0-3.927-3.389-4.054-4.566-4.054zm.712 7.538c.064.565-.35 3.216-2.352 3.216-1.033 0-1.302-.798-1.302-1.27 0-.92.495-2.024 2.931-2.024.567 0 .628.062.723.078 0 0-.095-.016 0 0zm6.966 5.965c.749 0 5.03.192 5.03-4.274 0-4.176-3.963-3.351-3.963-5.029 0-.835.646-1.098 1.827-1.098.468 0 2.272.15 2.272.15l.42-2.967s-1.168-.264-3.069-.264c-2.46 0-4.956.992-4.956 4.389 0 3.848 4.163 3.462 4.163 5.083 0 1.082-1.163 1.17-2.06 1.17-1.55 0-2.947-.538-2.952-.512l-.443 2.938c.08.025.941.414 3.73.414 0 0-2.789 0 0 0zm66.091-16.166-.717 4.499s-1.252-1.748-3.21-1.748c-3.047 0-5.587 3.714-5.587 7.98 0 2.755 1.355 5.453 4.123 5.453 1.992 0 3.096-1.403 3.096-1.403l-.146 1.199h3.234l2.54-15.986-3.333.006zm-1.544 8.772c0 1.776-.87 4.147-2.672 4.147-1.197 0-1.757-1.015-1.757-2.61 0-2.605 1.157-4.325 2.618-4.325 1.197 0 1.811.831 1.811 2.788 0 0 0-1.957 0 0zM14.226 45.857l2.024-12.068.298 12.068h2.291l4.273-12.068-1.893 12.068h3.404l2.621-16.006h-5.263l-3.279 9.821-.17-9.821H13.68l-2.66 16.006h3.206zM65.456 45.88c.967-5.565 1.147-10.083 3.456-9.256.405-2.153.795-2.986 1.236-3.898 0 0-.207-.044-.641-.044-1.49 0-2.592 2.057-2.592 2.057l.296-1.889h-3.096l-2.074 13.03h3.415zm20.673-13.353c-2.28 0-4.028.74-4.028.74l-.482 2.897s1.443-.593 3.623-.593c1.239 0 2.144.14 2.144 1.158 0 .618-.11.846-.11.846s-.977-.083-1.43-.083c-2.875 0-5.896 1.241-5.896 4.982 0 2.947 1.982 3.623 3.21 3.623 2.346 0 3.357-1.539 3.41-1.543l-.108 1.284h2.927l1.306-9.257c0-3.927-3.389-4.054-4.566-4.054zm.714 7.538c.063.565-.351 3.216-2.354 3.216-1.033 0-1.3-.798-1.3-1.27 0-.92.494-2.024 2.93-2.024.567 0 .627.062.724.078 0 0-.097-.016 0 0zm6.528 5.815c.968-5.565 1.148-10.083 3.457-9.256.405-2.153.795-2.986 1.236-3.898 0 0-.207-.044-.641-.044-1.49 0-2.592 2.057-2.592 2.057l.296-1.889h-3.096l-2.074 13.03h3.414z"/></g></svg>