<svg xmlns="http://www.w3.org/2000/svg" xmlns:xlink="http://www.w3.org/1999/xlink" width="500" zoomAndPan="magnify" viewBox="0 0 375 374.999991" height="500" preserveAspectRatio="xMidYMid meet" version="1.0"><defs><g/></defs><g fill="#585874" fill-opacity="1"><g transform="translate(64.416269, 180.946174)"><g><path d="M 26.074219 0 L 26.074219 -30.546875 C 26.074219 -39.300781 36.921875 -39.207031 36.921875 -30.355469 L 36.921875 0 L 60.140625 0 L 60.140625 -39.015625 C 60.140625 -51.101562 57.570312 -61.855469 43.582031 -62.140625 C 31.308594 -62.425781 27.5 -51.101562 27.3125 -40.15625 L 26.074219 -40.15625 L 26.074219 -61.855469 L 2.378906 -61.855469 L 2.378906 0 Z M 26.074219 0 "/></g></g></g><g fill="#585874" fill-opacity="1"><g transform="translate(127.219358, 180.946174)"><g><path d="M 53.671875 -35.113281 L 53.765625 -61.949219 L 19.03125 -61.949219 C 0 -61.949219 -2.949219 -36.636719 14.371094 -31.308594 C -3.425781 -25.980469 -2.472656 -0.09375 19.03125 -0.09375 L 53.671875 -0.09375 L 53.765625 -27.121094 C 49.007812 -27.121094 32.257812 -28.070312 32.449219 -13.609375 C 32.449219 -8.753906 34.449219 -5.613281 37.300781 -3.617188 L 36.828125 -2.570312 C 30.070312 -4.09375 25.789062 -11.132812 25.882812 -17.890625 C 26.074219 -25.789062 33.117188 -30.164062 41.015625 -30.355469 L 41.015625 -32.257812 C 31.308594 -32.542969 25.691406 -40.539062 26.167969 -47.867188 C 26.453125 -53.382812 30.546875 -58.429688 36.730469 -59.476562 L 37.207031 -58.429688 C 34.351562 -56.429688 32.355469 -53.289062 32.449219 -48.4375 C 32.640625 -32.257812 53.671875 -35.113281 53.671875 -35.113281 Z M 53.671875 -35.113281 "/></g></g></g><g fill="#585874" fill-opacity="1"><g transform="translate(182.885728, 180.946174)"><g><path d="M 2.855469 -61.757812 L 2.855469 0.09375 L 11.988281 0.09375 C 23.695312 0.09375 25.3125 -10.277344 26.738281 -17.320312 L 28.167969 -17.320312 L 28.167969 0.09375 L 37.777344 0.09375 C 70.226562 0.09375 70.039062 -61.757812 37.777344 -61.757812 Z M 26.265625 -24.644531 L 26.359375 -59 C 43.679688 -57.855469 42.917969 -24.644531 26.265625 -24.644531 Z M 26.265625 -24.644531 "/></g></g></g><g fill="#585874" fill-opacity="1"><g transform="translate(246.735528, 180.946174)"><g><path d="M 2.855469 -61.757812 L 2.855469 0.09375 L 11.988281 0.09375 C 23.695312 0.09375 25.3125 -10.277344 26.738281 -17.320312 L 28.167969 -17.320312 L 28.167969 0.09375 L 37.777344 0.09375 C 70.226562 0.09375 70.039062 -61.757812 37.777344 -61.757812 Z M 26.265625 -24.644531 L 26.359375 -59 C 43.679688 -57.855469 42.917969 -24.644531 26.265625 -24.644531 Z M 26.265625 -24.644531 "/></g></g></g><g fill="#585874" fill-opacity="1"><g transform="translate(23.6337, 228.846739)"><g><path d="M 13.167969 -17.453125 L 13.167969 -19.460938 L 2.53125 -19.460938 L 2.53125 0 L 4.605469 0 L 4.605469 -8.726562 L 12.066406 -8.726562 L 12.066406 -10.738281 L 4.605469 -10.738281 L 4.605469 -17.453125 Z M 13.167969 -17.453125 "/></g></g></g><g fill="#585874" fill-opacity="1"><g transform="translate(47.610356, 228.846739)"><g><path d="M 14.109375 0 L 16.382812 0 L 9.34375 -19.460938 L 7.039062 -19.460938 L 0 0 L 2.269531 0 L 3.859375 -4.542969 L 12.519531 -4.542969 Z M 4.542969 -6.519531 L 8.207031 -16.996094 L 11.839844 -6.519531 Z M 4.542969 -6.519531 "/></g></g></g><g fill="#585874" fill-opacity="1"><g transform="translate(74.213979, 228.846739)"><g><path d="M 7.265625 0.257812 C 10.574219 0.257812 13.265625 -1.71875 13.265625 -5.125 C 13.265625 -11.742188 3.796875 -10.121094 3.796875 -14.757812 C 3.796875 -16.707031 5.382812 -17.644531 7.199219 -17.644531 C 8.691406 -17.644531 9.925781 -17.03125 10.703125 -15.925781 L 12.328125 -17.289062 C 11.253906 -18.652344 9.375 -19.722656 7.136719 -19.722656 C 4.152344 -19.722656 1.71875 -17.777344 1.71875 -14.597656 C 1.71875 -8.335938 11.191406 -9.894531 11.191406 -5.058594 C 11.191406 -2.984375 9.472656 -1.816406 7.296875 -1.816406 C 5.09375 -1.816406 3.503906 -3.015625 2.820312 -4.800781 L 0.941406 -3.699219 C 1.945312 -1.296875 4.378906 0.257812 7.265625 0.257812 Z M 7.265625 0.257812 "/></g></g></g><g fill="#585874" fill-opacity="1"><g transform="translate(98.644682, 228.846739)"><g><path d="M 15.179688 -19.460938 L 15.179688 -10.769531 L 4.445312 -10.769531 L 4.445312 -19.460938 L 2.367188 -19.460938 L 2.367188 0 L 4.445312 0 L 4.445312 -8.691406 L 15.179688 -8.691406 L 15.179688 0 L 17.257812 0 L 17.257812 -19.460938 Z M 15.179688 -19.460938 "/></g></g></g><g fill="#585874" fill-opacity="1"><g transform="translate(128.491466, 228.846739)"><g><path d="M 2.53125 0 L 4.605469 0 L 4.605469 -19.460938 L 2.53125 -19.460938 Z M 2.53125 0 "/></g></g></g><g fill="#585874" fill-opacity="1"><g transform="translate(145.819628, 228.846739)"><g><path d="M 11.582031 0.257812 C 17.128906 0.257812 21.570312 -4.21875 21.570312 -9.730469 C 21.570312 -15.246094 17.128906 -19.722656 11.582031 -19.722656 C 6.066406 -19.722656 1.589844 -15.246094 1.589844 -9.730469 C 1.589844 -4.21875 6.066406 0.257812 11.582031 0.257812 Z M 11.582031 -1.816406 C 7.199219 -1.816406 3.664062 -5.320312 3.664062 -9.730469 C 3.664062 -14.144531 7.199219 -17.644531 11.582031 -17.644531 C 15.992188 -17.644531 19.496094 -14.144531 19.496094 -9.730469 C 19.496094 -5.320312 15.992188 -1.816406 11.582031 -1.816406 Z M 11.582031 -1.816406 "/></g></g></g><g fill="#585874" fill-opacity="1"><g transform="translate(179.233891, 228.846739)"><g><path d="M 16.347656 -19.460938 L 16.347656 -3.472656 L 4.3125 -19.460938 L 2.367188 -19.460938 L 2.367188 0 L 4.445312 0 L 4.445312 -15.992188 L 16.445312 0 L 18.390625 0 L 18.390625 -19.460938 Z M 16.347656 -19.460938 "/></g></g></g><g fill="#585874" fill-opacity="1"><g transform="translate(210.21578, 228.846739)"><g/></g></g><g fill="#585874" fill-opacity="1"><g transform="translate(228.257436, 228.846739)"><g><path d="M 7.265625 0.257812 C 10.574219 0.257812 13.265625 -1.71875 13.265625 -5.125 C 13.265625 -11.742188 3.796875 -10.121094 3.796875 -14.757812 C 3.796875 -16.707031 5.382812 -17.644531 7.199219 -17.644531 C 8.691406 -17.644531 9.925781 -17.03125 10.703125 -15.925781 L 12.328125 -17.289062 C 11.253906 -18.652344 9.375 -19.722656 7.136719 -19.722656 C 4.152344 -19.722656 1.71875 -17.777344 1.71875 -14.597656 C 1.71875 -8.335938 11.191406 -9.894531 11.191406 -5.058594 C 11.191406 -2.984375 9.472656 -1.816406 7.296875 -1.816406 C 5.09375 -1.816406 3.503906 -3.015625 2.820312 -4.800781 L 0.941406 -3.699219 C 1.945312 -1.296875 4.378906 0.257812 7.265625 0.257812 Z M 7.265625 0.257812 "/></g></g></g><g fill="#585874" fill-opacity="1"><g transform="translate(252.688144, 228.846739)"><g><path d="M 13.136719 -19.460938 L 0.292969 -19.460938 L 0.292969 -17.386719 L 5.675781 -17.386719 L 5.675781 0 L 7.753906 0 L 7.753906 -17.386719 L 13.136719 -17.386719 Z M 13.136719 -19.460938 "/></g></g></g><g fill="#585874" fill-opacity="1"><g transform="translate(276.340494, 228.846739)"><g><path d="M 11.582031 0.257812 C 17.128906 0.257812 21.570312 -4.21875 21.570312 -9.730469 C 21.570312 -15.246094 17.128906 -19.722656 11.582031 -19.722656 C 6.066406 -19.722656 1.589844 -15.246094 1.589844 -9.730469 C 1.589844 -4.21875 6.066406 0.257812 11.582031 0.257812 Z M 11.582031 -1.816406 C 7.199219 -1.816406 3.664062 -5.320312 3.664062 -9.730469 C 3.664062 -14.144531 7.199219 -17.644531 11.582031 -17.644531 C 15.992188 -17.644531 19.496094 -14.144531 19.496094 -9.730469 C 19.496094 -5.320312 15.992188 -1.816406 11.582031 -1.816406 Z M 11.582031 -1.816406 "/></g></g></g><g fill="#585874" fill-opacity="1"><g transform="translate(309.754768, 228.846739)"><g><path d="M 10.25 -8.886719 C 12.8125 -9.246094 14.757812 -11.386719 14.757812 -14.011719 C 14.757812 -17.0625 12.328125 -19.460938 9.34375 -19.460938 L 2.367188 -19.460938 L 2.367188 0 L 4.445312 0 L 4.445312 -8.789062 L 8.109375 -8.789062 L 13.625 0 L 15.992188 0 Z M 4.445312 -10.769531 L 4.445312 -17.386719 L 9.210938 -17.386719 C 11.160156 -17.386719 12.683594 -16.023438 12.683594 -14.078125 C 12.683594 -12.097656 11.191406 -10.769531 9.210938 -10.769531 Z M 4.445312 -10.769531 "/></g></g></g><g fill="#585874" fill-opacity="1"><g transform="translate(336.261091, 228.846739)"><g><path d="M 13.167969 -17.453125 L 13.167969 -19.460938 L 2.53125 -19.460938 L 2.53125 0 L 13.167969 0 L 13.167969 -2.011719 L 4.605469 -2.011719 L 4.605469 -8.726562 L 12.066406 -8.726562 L 12.066406 -10.738281 L 4.605469 -10.738281 L 4.605469 -17.453125 Z M 13.167969 -17.453125 "/></g></g></g></svg>